# xmcd
#
# Track frame offsets: 
#        150
#        13106
#        21169
#        31343
#        37910
#        51088
#        59384
#        72712
#        81561
#        92209
#        102736
#        112218
#        122179
#        133515
#        144041
#        154045
#        165730
#        175458
#
# Disc length: 2514 seconds
#
# Revision: 0
# Processed by: cddbd v1.5.2PL0 Copyright (c) Steve Scherf et al.
# Submitted via: ExactAudioCopy v0.95b3
#
DISCID=0409d012
DTITLE=Various Artist - Keb Darge Presents Lost and Found: Rockabilly and Jum
DTITLE=p Blues
DYEAR=2007
DGENRE=Rockabilly
TTITLE0=Buddy Griffin and his Orchestra 1597 - I Got a Secret (I Ain't
TTITLE0=Gonna Keep)
TTITLE1=Big T. Tyler - Sadie Green
TTITLE2=Rudy Greene - Juicy Fruit
TTITLE3=Omar and The Stringpoppers - My Baby Don't Breathe
TTITLE4=Chuck Berry - Too Much Monkey Business
TTITLE5=Lou Millet - Shorty the Barber
TTITLE6=Carlos and The Bandidos - Fever
TTITLE7=The Scarlets - Stampede
TTITLE8=Ray Harris - Come on Little Mama (Alternate Take)
TTITLE9=Dale Vaughn - How Can You Be Mean to Me
TTITLE10=Willie and The Stringpoppers - Oh Baby Babe
TTITLE11=Corky Jones - Hot Dog
TTITLE12=High Noon - Don't Have a Heart Left to Break
TTITLE13=The Moonlighters - Broken Heart
TTITLE14=The Imps - That'll Get it
TTITLE15=Jack Rabbit Slim - Long Time Dead
TTITLE16=Ronnie Hayward - You Hound Ya Lie
TTITLE17=Mark Lee Allen and The Driver Brothers - Oil Field is Burning
EXTD=
EXTT0=
EXTT1=
EXTT2=
EXTT3=
EXTT4=
EXTT5=
EXTT6=
EXTT7=
EXTT8=
EXTT9=
EXTT10=
EXTT11=
EXTT12=
EXTT13=
EXTT14=
EXTT15=
EXTT16=
EXTT17=
PLAYORDER=
